<svg id="visual" viewBox="0 0 960 540" width="960" height="540" xmlns="http://www.w3.org/2000/svg" xmlns:xlink="http://www.w3.org/1999/xlink" version="1.1"><rect x="0" y="0" width="960" height="540" fill="#FFFFFF"></rect><path d="M590 540L755 540L755 515L503 515L503 491L635 491L635 466L623 466L623 442L791 442L791 417L532 417L532 393L684 393L684 368L760 368L760 344L698 344L698 319L671 319L671 295L608 295L608 270L675 270L675 245L786 245L786 221L650 221L650 196L484 196L484 172L687 172L687 147L607 147L607 123L496 123L496 98L685 98L685 74L685 74L685 49L593 49L593 25L647 25L647 0L960 0L960 25L960 25L960 49L960 49L960 74L960 74L960 98L960 98L960 123L960 123L960 147L960 147L960 172L960 172L960 196L960 196L960 221L960 221L960 245L960 245L960 270L960 270L960 295L960 295L960 319L960 319L960 344L960 344L960 368L960 368L960 393L960 393L960 417L960 417L960 442L960 442L960 466L960 466L960 491L960 491L960 515L960 515L960 540L960 540Z" fill="#00ffff"></path><path d="M736 540L657 540L657 515L738 515L738 491L802 491L802 466L673 466L673 442L843 442L843 417L638 417L638 393L774 393L774 368L668 368L668 344L622 344L622 319L834 319L834 295L801 295L801 270L628 270L628 245L869 245L869 221L680 221L680 196L869 196L869 172L854 172L854 147L776 147L776 123L758 123L758 98L685 98L685 74L773 74L773 49L695 49L695 25L703 25L703 0L960 0L960 25L960 25L960 49L960 49L960 74L960 74L960 98L960 98L960 123L960 123L960 147L960 147L960 172L960 172L960 196L960 196L960 221L960 221L960 245L960 245L960 270L960 270L960 295L960 295L960 319L960 319L960 344L960 344L960 368L960 368L960 393L960 393L960 417L960 417L960 442L960 442L960 466L960 466L960 491L960 491L960 515L960 515L960 540L960 540Z" fill="#00d4d4"></path><path d="M769 540L868 540L868 515L835 515L835 491L754 491L754 466L826 466L826 442L722 442L722 417L731 417L731 393L763 393L763 368L949 368L949 344L854 344L854 319L959 319L959 295L931 295L931 270L730 270L730 245L785 245L785 221L824 221L824 196L803 196L803 172L794 172L794 147L795 147L795 123L740 123L740 98L785 98L785 74L754 74L754 49L890 49L890 25L821 25L821 0L960 0L960 25L960 25L960 49L960 49L960 74L960 74L960 98L960 98L960 123L960 123L960 147L960 147L960 172L960 172L960 196L960 196L960 221L960 221L960 245L960 245L960 270L960 270L960 295L960 295L960 319L960 319L960 344L960 344L960 368L960 368L960 393L960 393L960 417L960 417L960 442L960 442L960 466L960 466L960 491L960 491L960 515L960 515L960 540L960 540Z" fill="#00aaaa"></path></svg>